<svg width="95" height="25" viewBox="0 0 95 25" fill="none" xmlns="http://www.w3.org/2000/svg">
<path d="M4.69922 20.7734C4.66016 21.6621 3.58105 22.2041 1.46191 22.3994C1.38379 22.5557 1.38379 22.7852 1.46191 23.0879C3.30762 23.0293 4.61621 23 5.3877 23C6.6084 23 8 23.0293 9.5625 23.0879C9.64062 22.7852 9.64062 22.5557 9.5625 22.3994C7.42383 22.2041 6.34473 21.6621 6.3252 20.7734C6.22754 17.7363 6.17871 15.0898 6.17871 12.834C6.17871 9.74805 6.21777 7.01855 6.2959 4.64551H6.44238L13.5908 22.6338H13.7373L20.417 4.99707H20.5488C20.6465 7.93652 20.6953 10.5488 20.6953 12.834C20.6953 16.0078 20.6465 18.7178 20.5488 20.9639C20.5293 21.2178 20.4121 21.4375 20.1973 21.623C19.9922 21.7988 19.6846 21.9404 19.2744 22.0479C18.8643 22.1455 18.5176 22.2139 18.2344 22.2529C17.9512 22.292 17.5898 22.3311 17.1504 22.3701C17.0723 22.5264 17.0723 22.7559 17.1504 23.0586C18.8105 23 20.5098 22.9707 22.248 22.9707C24.3281 22.9707 26.3301 23 28.2539 23.0586C28.332 22.8828 28.332 22.6533 28.2539 22.3701C25.0117 22.1748 23.3809 21.7158 23.3613 20.9932C23.2441 17.9268 23.1855 14.8457 23.1855 11.75C23.1855 8.75195 23.2246 6.02246 23.3027 3.56152C23.3223 2.83887 24.9531 2.37988 28.1953 2.18457C28.2734 1.90137 28.2734 1.67188 28.1953 1.49609C26.2715 1.55469 23.7129 1.58398 20.5195 1.58398L14.2793 17.873L8.27344 1.58398C5.89062 1.58398 3.78125 1.54492 1.94531 1.4668C1.84766 1.66211 1.84766 1.84766 1.94531 2.02344C3.10742 2.18945 3.86426 2.43359 4.21582 2.75586C4.57715 3.06836 4.76758 3.7959 4.78711 4.93848C4.85547 7.34082 4.88965 9.61133 4.88965 11.75C4.88965 14.709 4.82617 17.7168 4.69922 20.7734ZM4.09863 20.7734C4.22559 17.6973 4.28906 14.6895 4.28906 11.75C4.28906 9.61133 4.25488 7.34082 4.18652 4.93848C4.16699 4.04004 3.99121 3.46387 3.65918 3.20996C3.33691 2.94629 2.63379 2.74121 1.5498 2.59473C1.27637 1.99902 1.28613 1.41309 1.5791 0.836914C3.8252 0.93457 6.74512 0.983398 10.3389 0.983398L15.1436 13.8154L20.0947 0.983398C22.7119 0.983398 25.6025 0.944336 28.7666 0.866211C28.9619 1.50098 28.9814 2.13086 28.8252 2.75586C26.667 2.9707 25.5781 3.25879 25.5586 3.62012C25.4707 5.45605 25.4268 8.16602 25.4268 11.75C25.4268 15.4512 25.4902 18.5127 25.6172 20.9346C25.6367 21.2959 26.7256 21.584 28.8838 21.7988C29.04 22.4238 29.0205 23.0537 28.8252 23.6885C25.6611 23.6104 23.8203 23.5713 23.3027 23.5713C22.5215 23.5713 20.334 23.6104 16.7402 23.6885C16.4961 23.0049 16.4961 22.375 16.7402 21.7988C18.8594 21.584 19.9287 21.3057 19.9482 20.9639C20.0459 18.6787 20.0947 15.9688 20.0947 12.834C20.0947 10.3926 20.085 8.60059 20.0654 7.45801L14.1475 23.2344H13.166L6.7793 7.13574V12.834C6.7793 15.0898 6.82812 17.7363 6.92578 20.7734C6.94531 21.3008 8.01465 21.6523 10.1338 21.8281C10.3779 22.4141 10.3779 23.0439 10.1338 23.7178C7.21387 23.6006 4.18164 23.6006 1.03711 23.7178C0.802734 23.0439 0.802734 22.4141 1.03711 21.8281C3.05859 21.6328 4.0791 21.2812 4.09863 20.7734ZM58.6201 19.0742C59.3135 19.0742 59.9043 19.2646 60.3926 19.6455C60.2754 20.2217 60.1191 20.7783 59.9238 21.3154C59.7285 21.8428 59.4551 22.3115 59.1035 22.7217C58.7617 23.1221 58.3223 23.4443 57.7852 23.6885C57.2578 23.9326 56.5938 24.0547 55.793 24.0547C54.9727 24.0254 54.4014 23.9326 54.0791 23.7764C53.7568 23.6299 53.415 23.4443 53.0537 23.2197C52.6924 23.0049 52.2578 22.5898 51.75 21.9746C51.1738 22.4043 50.6367 22.751 50.1387 23.0146C49.6406 23.2881 49.1377 23.5029 48.6299 23.6592C48.1221 23.8154 47.5898 23.918 47.0332 23.9668C46.4863 24.0254 45.8662 24.0547 45.1729 24.0547C44.4111 24.0547 43.7227 23.9668 43.1074 23.791C42.502 23.625 41.9648 23.3906 41.4961 23.0879C41.0371 22.7949 40.6416 22.4531 40.3096 22.0625C39.9873 21.6621 39.7188 21.2422 39.5039 20.8027C39.2988 20.3535 39.1475 19.8945 39.0498 19.4258C38.9521 18.9473 38.9033 18.4883 38.9033 18.0488C38.9033 17.5898 38.9668 17.0674 39.0938 16.4814C39.2207 15.8955 39.4502 15.2998 39.7822 14.6943C40.1143 14.0889 40.5635 13.4932 41.1299 12.9072C41.7061 12.3115 42.4336 11.7744 43.3125 11.2959C42.9414 10.9346 42.6191 10.5781 42.3457 10.2266C42.0723 9.875 41.8428 9.51367 41.6572 9.14258C41.4814 8.77148 41.3496 8.37598 41.2617 7.95605C41.1738 7.53613 41.1299 7.07227 41.1299 6.56445C41.1299 5.86133 41.2715 5.20703 41.5547 4.60156C41.8477 3.98633 42.2432 3.45898 42.7412 3.01953C43.2393 2.57031 43.8203 2.21875 44.4844 1.96484C45.1484 1.71094 45.8613 1.58398 46.623 1.58398C48.5957 1.58398 50.0703 1.95508 51.0469 2.69727C52.0332 3.42969 52.5264 4.58691 52.5264 6.16895C52.5264 6.74512 52.4629 7.2627 52.3359 7.72168C52.209 8.18066 52.0137 8.60547 51.75 8.99609C51.4961 9.37695 51.1641 9.73828 50.7539 10.0801C50.3535 10.4219 49.875 10.7686 49.3184 11.1201C50.5391 12.3994 51.75 13.8789 52.9512 15.5586C53.332 14.8262 53.6445 14.1084 53.8887 13.4053C54.1426 12.6924 54.2695 12.0381 54.2695 11.4424C54.2695 11.374 54.2598 11.3105 54.2402 11.252C54.2305 11.1934 54.1816 11.1445 54.0938 11.1055C54.0059 11.0664 53.8643 11.0322 53.6689 11.0029C53.4736 10.9736 53.1953 10.9443 52.834 10.915C52.7266 10.6123 52.6729 10.3047 52.6729 9.99219C52.6729 9.67969 52.7266 9.34766 52.834 8.99609C54.1523 9.05469 55.4805 9.08398 56.8184 9.08398C58.1562 9.08398 59.5088 9.05469 60.876 8.99609C61.0322 9.25 61.1104 9.54297 61.1104 9.875C61.1104 10.0215 61.0957 10.1777 61.0664 10.3438C61.0371 10.5098 60.9834 10.6807 60.9053 10.8564C59.7529 10.9932 58.9912 11.3789 58.6201 12.0137L54.9287 18.3564C55.8662 19.7822 56.6768 20.6318 57.3604 20.9053C57.8877 20.6318 58.3076 20.0215 58.6201 19.0742ZM53.2441 10.3145C53.4492 10.3438 53.6494 10.3779 53.8447 10.417C54.04 10.4561 54.2158 10.5146 54.3721 10.5928C54.5283 10.6709 54.6504 10.7783 54.7383 10.915C54.8359 11.0518 54.8848 11.2373 54.8848 11.4717C54.8848 12.3115 54.6357 13.2441 54.1377 14.2695C53.6494 15.2949 52.9756 16.3643 52.1162 17.4775C50.2705 14.8115 48.5273 12.6533 46.8867 11.0029C47.4727 10.6807 47.9902 10.3486 48.4395 10.0068C48.8887 9.65527 49.2598 9.28906 49.5527 8.9082C49.8555 8.51758 50.0801 8.09766 50.2266 7.64844C50.3828 7.19922 50.4609 6.70605 50.4609 6.16895C50.4609 4.83105 50.1143 3.83496 49.4209 3.18066C48.7373 2.5166 47.8047 2.18457 46.623 2.18457C45.9492 2.18457 45.3145 2.30176 44.7188 2.53613C44.123 2.76074 43.6055 3.07324 43.166 3.47363C42.7266 3.86426 42.375 4.32812 42.1113 4.86523C41.8574 5.39258 41.7305 5.95898 41.7305 6.56445C41.7305 7.08203 41.7744 7.54102 41.8623 7.94141C41.96 8.3418 42.1113 8.72754 42.3164 9.09863C42.5312 9.45996 42.8047 9.82617 43.1367 10.1973C43.4688 10.5684 43.8691 10.9883 44.3379 11.457C43.3711 11.916 42.5752 12.4336 41.9502 13.0098C41.335 13.5859 40.8418 14.1719 40.4707 14.7676C40.1094 15.3535 39.8555 15.9346 39.709 16.5107C39.5723 17.0771 39.5039 17.5898 39.5039 18.0488C39.5039 18.6348 39.6016 19.2451 39.7969 19.8799C40.002 20.5146 40.3242 21.1006 40.7637 21.6377C41.2129 22.165 41.7988 22.5996 42.5215 22.9414C43.2441 23.2832 44.1279 23.4541 45.1729 23.4541C47.2529 23.4541 49.3428 22.4727 51.4424 20.5098C51.7354 20.959 52.0479 21.3838 52.3799 21.7842C52.7119 22.1846 53.1318 22.541 53.6396 22.8535C54.1572 23.1562 54.5869 23.332 54.9287 23.3809C55.2803 23.4297 55.5684 23.4541 55.793 23.4541C56.4082 23.4541 56.9355 23.3662 57.375 23.1904C57.8145 23.0146 58.1855 22.7705 58.4883 22.458C58.791 22.1455 59.04 21.7695 59.2354 21.3301C59.4307 20.8809 59.5967 20.3877 59.7334 19.8506C59.5869 19.7334 59.3574 19.6748 59.0449 19.6748C58.5273 20.9541 57.8047 21.5938 56.877 21.5938C56.6621 21.5938 56.4424 21.5596 56.2178 21.4912C55.9932 21.4229 55.7441 21.3301 55.4707 21.2129C55.1973 21.0957 54.8506 20.8125 54.4307 20.3633C54.0107 19.9043 53.4346 19.2451 52.7021 18.3857L56.8477 11.6621C57.2871 10.9395 58.4395 10.4902 60.3047 10.3145C60.3633 10.2168 60.3926 10.1094 60.3926 9.99219C60.3926 9.88477 60.3633 9.7627 60.3047 9.62598C59.6309 9.65527 58.9814 9.6748 58.3564 9.68457C57.7314 9.69434 57.126 9.69922 56.54 9.69922C55.9443 9.69922 55.373 9.69434 54.8262 9.68457C54.2793 9.6748 53.752 9.65527 53.2441 9.62598C53.1953 9.72363 53.1709 9.83594 53.1709 9.96289C53.1709 10.0996 53.1953 10.2168 53.2441 10.3145ZM46.1104 10.2852C44.6064 9.06445 43.8545 7.81445 43.8545 6.53516C43.8545 5.67578 44.1084 4.95801 44.6162 4.38184C45.1338 3.7959 45.8516 3.50293 46.7695 3.50293C47.4531 3.50293 48.0293 3.72754 48.498 4.17676C48.9668 4.62598 49.2012 5.30957 49.2012 6.22754C49.2012 7.18457 48.8838 8.00977 48.249 8.70312C47.624 9.39648 46.9111 9.92383 46.1104 10.2852ZM50.8125 19.4844C49.7188 20.666 48.293 21.2568 46.5352 21.2568C45.1875 21.2568 44.084 20.9199 43.2246 20.2461C42.3652 19.5625 41.9355 18.5908 41.9355 17.3311C41.9355 16.1104 42.248 15.0508 42.873 14.1523C43.5078 13.2539 44.2744 12.6338 45.1729 12.292C47.458 14.6748 49.3379 17.0723 50.8125 19.4844ZM47.1064 20.6562C48.2197 20.5586 49.1963 20.1387 50.0361 19.3965C48.7178 17.2773 47.1992 15.2998 45.4805 13.4639C44.5039 14.3428 44.0156 15.6318 44.0156 17.3311C44.0156 18.3271 44.2988 19.1084 44.8652 19.6748C45.4316 20.2314 46.1787 20.5586 47.1064 20.6562ZM48.6006 6.22754C48.6006 5.08496 48.1611 4.40625 47.2822 4.19141C46.8428 4.32812 46.5059 4.60645 46.2715 5.02637C46.0469 5.44629 45.9346 5.94922 45.9346 6.53516C45.9346 7.39453 46.3447 8.25391 47.165 9.11328C48.1221 8.3125 48.6006 7.35059 48.6006 6.22754ZM88.3564 13.6396V11.7207C88.3564 9.46484 88.3076 6.81348 88.21 3.7666C88.1904 3.24902 87.1211 2.90234 85.002 2.72656C84.8652 2.38477 84.7969 2.07227 84.7969 1.78906C84.7969 1.61328 84.8652 1.31543 85.002 0.895508C86.4863 0.954102 87.9756 0.983398 89.4697 0.983398C90.9736 0.983398 92.5166 0.954102 94.0986 0.895508C94.2354 1.31543 94.3037 1.61328 94.3037 1.78906C94.3037 2.07227 94.2354 2.38477 94.0986 2.72656C92.0771 2.92187 91.0566 3.26855 91.0371 3.7666C90.9102 5.82715 90.8467 8.83984 90.8467 12.8047C90.8467 17.2773 90.9102 20.8955 91.0371 23.6592L89.8359 23.6885L75.9346 6.68164C75.9346 6.85742 75.9297 7.17969 75.9199 7.64844C75.9102 8.10742 75.9053 8.46387 75.9053 8.71777C75.9053 13.4346 75.9688 17.4531 76.0957 20.7734C76.1152 21.3008 77.1846 21.6523 79.3037 21.8281C79.4404 22.1699 79.5088 22.4824 79.5088 22.7656C79.5088 22.9805 79.4404 23.2979 79.3037 23.7178C77.7998 23.6592 76.3105 23.6299 74.8359 23.6299C73.332 23.6299 71.7891 23.6592 70.207 23.7178C70.0703 23.2979 70.002 22.9805 70.002 22.7656C70.002 22.4824 70.0703 22.1699 70.207 21.8281C72.2285 21.6328 73.249 21.2812 73.2686 20.7734C73.3857 18.7227 73.4443 15.7148 73.4443 11.75C73.4443 8.71289 73.4053 6.00293 73.3271 3.62012C72.6924 3.12207 71.7256 2.82422 70.4268 2.72656C70.2803 2.46289 70.207 2.16016 70.207 1.81836C70.207 1.45703 70.2998 1.12988 70.4854 0.836914C72.5264 0.93457 75.1045 0.983398 78.2197 0.983398L88.3564 13.6396ZM90.2461 12.8047C90.2461 9.8457 90.3096 6.83301 90.4365 3.7666C90.4756 2.8877 91.5547 2.35059 93.6738 2.15527C93.752 1.98926 93.752 1.75977 93.6738 1.4668C91.8281 1.52539 90.5195 1.55469 89.748 1.55469C88.5273 1.55469 87.1357 1.52539 85.5732 1.4668C85.4951 1.75977 85.4951 1.98926 85.5732 2.15527C87.7119 2.35059 88.791 2.8877 88.8105 3.7666C88.9082 6.81348 88.957 9.46484 88.957 11.7207C88.957 13.0391 88.9375 14.8164 88.8984 17.0527L76.2715 1.58398C74.0742 1.58398 72.2529 1.54492 70.8076 1.4668C70.7295 1.70117 70.7295 1.93066 70.8076 2.15527C72.0674 2.2334 73.1074 2.63379 73.9277 3.35645C74.0059 5.72949 74.0449 8.52734 74.0449 11.75C74.0449 14.709 73.9863 17.7168 73.8691 20.7734C73.8301 21.6621 72.751 22.2041 70.6318 22.3994C70.5537 22.5557 70.5537 22.7852 70.6318 23.0879C72.4678 23.0293 73.7764 23 74.5576 23C75.7783 23 77.1699 23.0293 78.7324 23.0879C78.8105 22.7852 78.8105 22.5557 78.7324 22.3994C76.5938 22.2041 75.5146 21.6621 75.4951 20.7734C75.3975 17.7363 75.3486 15.0898 75.3486 12.834C75.3486 10.2559 75.3779 7.70215 75.4365 5.17285H75.583L90.1289 23.0879L90.4072 23.0586C90.2998 20.7637 90.2461 17.3457 90.2461 12.8047Z" fill="white"/>
</svg>
